<svg width="89" height="46" viewBox="0 0 89 46" fill="none" xmlns="http://www.w3.org/2000/svg">
<path d="M12.4 45.512C8.432 45.512 4.784 45.2347 1.456 44.68V40.52C2.94933 40.7333 4.592 40.9253 6.384 41.096C8.176 41.224 9.69067 41.288 10.928 41.288C12.6347 41.288 13.9787 41.1813 14.96 40.968C15.984 40.712 16.816 40.2853 17.456 39.688C18.0533 39.1333 18.4373 38.3227 18.608 37.256C18.8213 36.1893 18.928 34.76 18.928 32.968C18.928 30.6213 18.8427 28.9787 18.672 28.04C18.5013 27.1013 18.096 26.44 17.456 26.056C16.8587 25.6293 15.7707 25.288 14.192 25.032L6.768 23.88C4.976 23.5813 3.632 22.984 2.736 22.088C1.84 21.1493 1.24267 19.9547 0.944 18.504C0.688 17.0533 0.56 15.112 0.56 12.68C0.56 8.24267 1.49867 5.10667 3.376 3.272C5.25333 1.39466 8.26133 0.455997 12.4 0.455997C16.368 0.455997 19.6107 0.797331 22.128 1.48V5.448C19.2693 4.936 16.3893 4.68 13.488 4.68C11.6533 4.68 10.2027 4.85066 9.136 5.192C8.06933 5.49067 7.25867 5.96 6.704 6.6C6.14933 7.24 5.78667 8.02933 5.616 8.968C5.44533 9.90667 5.36 11.1013 5.36 12.552C5.36 14.5147 5.44533 15.944 5.616 16.84C5.78667 17.6933 6.128 18.2907 6.64 18.632C7.152 18.9733 8.00533 19.2507 9.2 19.464L16.368 20.616C18.16 20.9147 19.568 21.3627 20.592 21.96C21.616 22.5573 22.4053 23.5813 22.96 25.032C23.472 26.2693 23.728 28.7227 23.728 32.392C23.728 35.6773 23.3653 38.2587 22.64 40.136C21.9573 42.0133 20.784 43.3787 19.12 44.232C17.4987 45.0853 15.2587 45.512 12.4 45.512ZM42.6135 45L37.1095 27.272H36.2135H27.9575V45H23.1575V0.967999H36.5975C39.6268 0.967999 41.8882 1.52266 43.3815 2.632C44.8748 3.74133 45.8348 5.21333 46.2615 7.048C46.7308 8.88266 46.9655 11.2507 46.9655 14.152C46.9655 17.352 46.6242 19.9973 45.9415 22.088C45.3015 24.136 43.8935 25.5867 41.7175 26.44L47.6695 45H42.6135ZM35.3815 23.112C37.3868 23.112 38.8802 22.792 39.8615 22.152C40.8428 21.512 41.4615 20.5947 41.7175 19.4C42.0162 18.1627 42.1655 16.4133 42.1655 14.152C42.1655 11.848 42.0162 10.0987 41.7175 8.904C41.4615 7.70933 40.8642 6.792 39.9255 6.152C38.9868 5.512 37.4935 5.192 35.4455 5.192H27.9575V23.112H35.3815ZM83.766 45L80.694 32.776H67.19L64.182 45H59.382L70.902 0.967999H77.174L88.694 45H83.766ZM74.102 6.792H73.782L68.342 28.552H79.542L74.102 6.792Z" fill="#CE0909"/>
<path d="M20.167 45V0.967999H24.967V45H20.167Z" fill="#212020"/>
<path d="M43.84 0.967999H56.896C59.8827 0.967999 62.1227 1.56533 63.616 2.76C65.1093 3.912 66.0693 5.448 66.496 7.368C66.9653 9.24533 67.2 11.72 67.2 14.792C67.2 17.7787 66.9653 20.232 66.496 22.152C66.0693 24.0293 65.1093 25.5653 63.616 26.76C62.1227 27.9547 59.8827 28.552 56.896 28.552H48.64V45H43.84V0.967999ZM55.616 24.392C57.664 24.392 59.1573 24.0507 60.096 23.368C61.0773 22.6853 61.696 21.704 61.952 20.424C62.2507 19.1013 62.4 17.224 62.4 14.792C62.4 12.3173 62.2507 10.44 61.952 9.16C61.696 7.83733 61.0987 6.856 60.16 6.216C59.2213 5.53333 57.728 5.192 55.68 5.192H48.64V24.392H55.616Z" fill="black"/>
</svg>
